:FULLY-SPECIFIED
:FORCE-ALL-JOINTS-BE-3DOF
:DEGREES
485
root 10.8799 17.2823 31.6232 4.36231 4.29173 4.93178
lfemur 12.0669 2.41065 -29.8503
ltibia -0.627985 0 0
lfoot -13.417 4.47625 0
ltoes 1.2987 0 0
rfemur -39.9553 8.20432 10.2045
rtibia 29.8608 0 0
rfoot -21.9534 -6.45197 0
rtoes -12.6339 0 0
lowerback -7.23965 -4.86668 -5.7028
upperback 1.58684 -6.0552 1.4951
thorax 6.48603 -3.22634 3.95496
lowerneck -23.3128 -2.30173 -9.74269
upperneck 24.0415 -2.6037 10.144
head 12.0442 -0.73399 5.05986
lclavicle -1.28172e-14 2.00159e-14 0
lhumerus -7.33033 -21.3427 83.356
lradius 32.8932 0 0
lwrist 8.27789 0 0
lhand -16.9882 -25.731 0
lfingers 7.12502 0 0
lthumb 9.24667 4.04594 0
rclavicle -1.28172e-14 2.00159e-14 0
rhumerus -47.0372 8.91791 -85.5599
rradius 38.1178 0 0
rwrist -19.9107 0 0
rhand -32.4945 -22.973 0
rfingers 7.12502 0 0
rthumb -5.72616 -52.8749 0
486
root 10.8688 17.2657 31.787 4.41226 4.34221 4.97619
lfemur 12.9615 2.34695 -29.7812
ltibia -1.24741 0 0
lfoot -13.3834 4.48585 0
ltoes 0.891863 0 0
rfemur -40.2916 8.36244 10.16
rtibia 29.2482 0 0
rfoot -22.1344 -6.61175 0
rtoes -12.9334 0 0
lowerback -7.30854 -4.9224 -5.74859
upperback 1.60386 -6.12317 1.49464
thorax 6.55353 -3.26242 3.9665
lowerneck -23.3667 -2.29968 -9.73757
upperneck 24.0063 -2.6054 10.1806
head 12.042 -0.728031 5.07211
lclavicle -1.14711e-14 1.9222e-14 0
lhumerus -7.45877 -21.537 83.4851
lradius 33.1295 0 0
lwrist 8.44573 0 0
lhand -16.9519 -25.7988 0
lfingers 7.12502 0 0
lthumb 9.28166 3.97616 0
rclavicle -1.14711e-14 1.9222e-14 0
rhumerus -47.137 8.72061 -85.4301
rradius 37.8625 0 0
rwrist -19.7884 0 0
rhand -32.3099 -23.084 0
rfingers 7.12502 0 0
rthumb -5.54796 -52.9899 0
487
root 10.8563 17.2473 31.9619 4.46918 4.39502 5.01858
lfemur 13.8814 2.27698 -29.6989
ltibia -1.8497 0 0
lfoot -13.3588 4.49425 0
ltoes 0.44346 0 0
rfemur -40.6329 8.50824 10.133
rtibia 28.656 0 0
rfoot -22.3236 -6.79998 0
rtoes -13.2903 0 0
lowerback -7.37735 -4.97888 -5.79258
upperback 1.61419 -6.19237 1.49489
thorax 6.61399 -3.29877 3.97786
lowerneck -23.4207 -2.29966 -9.7354
upperneck 23.9692 -2.61015 10.2219
head 12.0397 -0.723084 5.08614
lclavicle -9.83894e-15 1.82998e-14 0
lhumerus -7.64014 -21.7456 83.6456
lradius 33.3673 0 0
lwrist 8.60944 0 0
lhand -16.8977 -25.8693 0
lfingers 7.12502 0 0
lthumb 9.334 3.90284 0
rclavicle -9.83894e-15 1.82998e-14 0
rhumerus -47.2474 8.50372 -85.2887
rradius 37.5733 0 0
rwrist -19.644 0 0
rhand -32.11 -23.2097 0
rfingers 7.12502 0 0
rthumb -5.35488 -53.1197 0
488
root 10.8423 17.2274 32.1462 4.53253 4.44953 5.05831
lfemur 14.8151 2.20145 -29.6042
ltibia -2.4263 0 0
lfoot -13.3437 4.5013 0
ltoes -0.0419312 0 0
rfemur -40.9749 8.63937 10.1245
rtibia 28.0928 0 0
rfoot -22.5187 -7.0151 0
rtoes -13.7018 0 0
lowerback -7.44516 -5.03537 -5.83413
upperback 1.61747 -6.2619 1.49588
thorax 6.66638 -3.3349 3.98887
lowerneck -23.4742 -2.30175 -9.73632
upperneck 23.9305 -2.61799 10.2676
head 12.0372 -0.719248 5.10184
lclavicle -7.93298e-15 1.72573e-14 0
lhumerus -7.87377 -21.9663 83.8364
lradius 33.6033 0 0
lwrist 8.76673 0 0
lhand -16.8255 -25.9414 0
lfingers 7.12502 0 0
lthumb 9.40357 3.82683 0
rclavicle -7.93298e-15 1.72573e-14 0
rhumerus -47.3671 8.26948 -85.1372
rradius 37.2528 0 0
rwrist -19.4786 0 0
rhand -31.8967 -23.3487 0
rfingers 7.12502 0 0
rthumb -5.149 -53.2632 0
